<svg width="330" height="81" viewBox="0 0 330 81" fill="none" xmlns="http://www.w3.org/2000/svg">
    <rect width="197" height="52" fill="#546dfe"/>
    <path d="M14.7599 46H6.85085L24.6974 11.0909H34.2088L40.4474 46H32.5384L28.294 19.0682H28.0213L14.7599 46ZM16.5668 32.2784H35.2486L34.2599 38.0398H15.5781L16.5668 32.2784ZM79.6435 11.0909L73.848 46H67.473L55.9673 24.0284H55.6946L52.0298 46H44.6491L50.4446 11.0909H56.9219L68.3764 33.0455H68.6662L72.2969 11.0909H79.6435ZM92.4915 46H79.946L85.7415 11.0909H98.0483C101.56 11.0909 104.474 11.8068 106.793 13.2386C109.122 14.6705 110.764 16.7216 111.719 19.392C112.673 22.0511 112.844 25.2273 112.23 28.9205C111.639 32.4886 110.463 35.5511 108.702 38.108C106.94 40.6534 104.685 42.608 101.935 43.9716C99.1847 45.3239 96.0369 46 92.4915 46ZM88.3835 39.6761H92.9176C95.1108 39.6761 97.0313 39.267 98.679 38.4489C100.338 37.6307 101.696 36.3693 102.753 34.6648C103.821 32.9602 104.577 30.7784 105.02 28.1193C105.44 25.5966 105.412 23.5511 104.935 21.983C104.469 20.4034 103.565 19.25 102.224 18.5227C100.884 17.7841 99.1222 17.4148 96.9403 17.4148H92.0824L88.3835 39.6761ZM116.509 11.0909H124.776L130.247 26.125H130.622L141.037 11.0909H149.304L132.838 33.6591L130.776 46H123.446L125.509 33.6591L116.509 11.0909ZM159.284 11.0909L158.688 14.7727C158.517 15.8182 158.136 16.8864 157.545 17.9773C156.966 19.0568 156.261 20.0795 155.432 21.0455C154.602 22 153.739 22.8125 152.841 23.483L149.909 21.5909C150.625 20.6932 151.29 19.6989 151.903 18.608C152.528 17.517 152.96 16.25 153.199 14.8068L153.83 11.0909H159.284ZM181.537 21.233C181.594 19.8125 181.179 18.7159 180.293 17.9432C179.418 17.1705 178.094 16.7841 176.321 16.7841C175.116 16.7841 174.071 16.9545 173.185 17.2955C172.298 17.625 171.588 18.0852 171.054 18.6761C170.531 19.2557 170.207 19.9261 170.082 20.6875C169.957 21.3125 169.997 21.858 170.202 22.3239C170.418 22.7898 170.753 23.1932 171.207 23.5341C171.673 23.8636 172.224 24.1534 172.861 24.4034C173.497 24.642 174.173 24.8466 174.889 25.017L177.889 25.767C179.355 26.108 180.673 26.5625 181.844 27.1307C183.026 27.6989 184.014 28.3977 184.81 29.2273C185.616 30.0568 186.185 31.0341 186.514 32.1591C186.844 33.2841 186.889 34.5739 186.651 36.0284C186.287 38.1648 185.44 40.017 184.111 41.5852C182.781 43.142 181.037 44.3523 178.878 45.2159C176.719 46.0682 174.219 46.4943 171.378 46.4943C168.56 46.4943 166.179 46.0625 164.236 45.1989C162.293 44.3352 160.878 43.0568 159.991 41.3636C159.116 39.6591 158.855 37.5511 159.207 35.0398H166.349C166.224 36.2102 166.395 37.1875 166.861 37.9716C167.338 38.7443 168.048 39.3295 168.991 39.7273C169.935 40.1136 171.043 40.3068 172.315 40.3068C173.577 40.3068 174.696 40.125 175.673 39.7614C176.662 39.3977 177.463 38.892 178.077 38.2443C178.69 37.5966 179.065 36.8523 179.202 36.0114C179.338 35.2273 179.219 34.5682 178.844 34.0341C178.469 33.5 177.866 33.0455 177.037 32.6705C176.219 32.2841 175.202 31.9432 173.986 31.6477L170.338 30.6932C167.52 29.9773 165.389 28.858 163.946 27.3352C162.503 25.8125 161.986 23.7614 162.395 21.1818C162.759 19.0682 163.639 17.2216 165.037 15.642C166.446 14.0511 168.219 12.8182 170.355 11.9432C172.503 11.0568 174.849 10.6136 177.395 10.6136C179.986 10.6136 182.173 11.0625 183.957 11.9602C185.741 12.8466 187.043 14.0852 187.861 15.6761C188.679 17.267 188.929 19.1193 188.611 21.233H181.537Z" fill="white" stroke="white"/>
    <path d="M215.679 11.0909H224.781L230.526 34.5455H230.935L244.418 11.0909H253.52L247.724 46H240.565L244.349 23.2784H244.043L231.293 45.8295H226.401L221.151 23.1932H220.861L217.043 46H209.884L215.679 11.0909ZM261.067 46.4943C259.408 46.4943 257.97 46.2045 256.754 45.625C255.55 45.0341 254.663 44.1591 254.095 43C253.527 41.8409 253.385 40.4034 253.669 38.6875C253.919 37.233 254.391 36.017 255.084 35.0398C255.788 34.0511 256.646 33.2557 257.658 32.6534C258.669 32.0511 259.788 31.5909 261.016 31.2727C262.254 30.9545 263.533 30.7386 264.851 30.625C266.374 30.4659 267.612 30.3125 268.567 30.1648C269.533 30.017 270.254 29.8068 270.732 29.5341C271.209 29.25 271.499 28.8295 271.601 28.2727V28.1705C271.771 27.1023 271.572 26.2727 271.004 25.6818C270.447 25.0795 269.555 24.7784 268.328 24.7784C267.033 24.7784 265.93 25.0625 265.021 25.6307C264.124 26.1989 263.482 26.9205 263.095 27.7955L256.482 27.25C257.072 25.6591 257.964 24.2841 259.158 23.125C260.362 21.9545 261.811 21.0568 263.504 20.4318C265.197 19.7955 267.095 19.4773 269.197 19.4773C270.652 19.4773 272.01 19.6477 273.271 19.9886C274.544 20.3295 275.641 20.858 276.561 21.5739C277.493 22.2898 278.163 23.2102 278.572 24.3352C278.993 25.4489 279.078 26.7841 278.828 28.3409L275.879 46H268.993L269.607 42.3693H269.402C268.845 43.1875 268.163 43.9091 267.357 44.5341C266.55 45.1477 265.624 45.6307 264.578 45.983C263.533 46.3239 262.362 46.4943 261.067 46.4943ZM263.982 41.483C265.038 41.483 266.01 41.2727 266.896 40.8523C267.794 40.4205 268.533 39.8409 269.112 39.1136C269.703 38.3864 270.078 37.5625 270.237 36.642L270.68 33.8636C270.453 34.0114 270.124 34.142 269.692 34.2557C269.271 34.3693 268.811 34.4773 268.311 34.5795C267.822 34.6705 267.328 34.7557 266.828 34.8352C266.328 34.9034 265.879 34.9716 265.482 35.0398C264.607 35.1648 263.822 35.3636 263.129 35.6364C262.436 35.9091 261.874 36.2784 261.442 36.7443C261.01 37.1989 260.743 37.767 260.641 38.4489C260.482 39.4375 260.714 40.1932 261.339 40.7159C261.976 41.2273 262.857 41.483 263.982 41.483ZM299.803 19.8182L298.899 25.2727H283.115L284.036 19.8182H299.803ZM288.638 13.5455H295.899L291.842 37.9545C291.729 38.625 291.746 39.1477 291.893 39.5227C292.041 39.8864 292.286 40.142 292.626 40.2898C292.979 40.4375 293.399 40.5114 293.888 40.5114C294.229 40.5114 294.575 40.483 294.928 40.4261C295.28 40.358 295.547 40.3068 295.729 40.2727L296.001 45.6761C295.592 45.8011 295.041 45.9375 294.348 46.0852C293.666 46.233 292.859 46.3239 291.928 46.358C290.155 46.4261 288.655 46.1932 287.428 45.6591C286.2 45.1136 285.32 44.2784 284.786 43.1534C284.251 42.0284 284.138 40.6136 284.445 38.9091L288.638 13.5455ZM310.55 30.8636L308.027 46H300.783L306.578 11.0909H313.618L311.436 24.4375H311.726C312.567 22.892 313.72 21.6818 315.186 20.8068C316.652 19.9205 318.385 19.4773 320.385 19.4773C322.203 19.4773 323.72 19.875 324.936 20.6705C326.163 21.4545 327.033 22.5852 327.544 24.0625C328.055 25.5284 328.141 27.2841 327.8 29.3295L325.004 46H317.76L320.317 30.625C320.578 29.0114 320.368 27.7557 319.686 26.858C319.016 25.9602 317.947 25.5114 316.482 25.5114C315.493 25.5114 314.584 25.7216 313.754 26.142C312.925 26.5625 312.226 27.1761 311.658 27.983C311.101 28.7784 310.732 29.7386 310.55 30.8636Z" fill="#546dfe" stroke="#546dfe" />
    <path d="M163.28 63H161.167C161.042 62.392 160.823 61.858 160.51 61.3977C160.203 60.9375 159.828 60.5511 159.385 60.2386C158.948 59.9205 158.462 59.6818 157.928 59.5227C157.394 59.3636 156.837 59.2841 156.257 59.2841C155.201 59.2841 154.243 59.5511 153.385 60.0852C152.533 60.6193 151.854 61.4062 151.348 62.446C150.848 63.4858 150.598 64.7614 150.598 66.2727C150.598 67.7841 150.848 69.0597 151.348 70.0994C151.854 71.1392 152.533 71.9261 153.385 72.4602C154.243 72.9943 155.201 73.2614 156.257 73.2614C156.837 73.2614 157.394 73.1818 157.928 73.0227C158.462 72.8636 158.948 72.6278 159.385 72.3153C159.828 71.9972 160.203 71.608 160.51 71.1477C160.823 70.6818 161.042 70.1477 161.167 69.5455H163.28C163.121 70.4375 162.831 71.2358 162.411 71.9403C161.99 72.6449 161.468 73.2443 160.843 73.7386C160.218 74.2273 159.516 74.5994 158.738 74.8551C157.965 75.1108 157.138 75.2386 156.257 75.2386C154.769 75.2386 153.445 74.875 152.286 74.1477C151.127 73.4205 150.215 72.3864 149.55 71.0455C148.885 69.7045 148.553 68.1136 148.553 66.2727C148.553 64.4318 148.885 62.8409 149.55 61.5C150.215 60.1591 151.127 59.125 152.286 58.3977C153.445 57.6705 154.769 57.3068 156.257 57.3068C157.138 57.3068 157.965 57.4347 158.738 57.6903C159.516 57.946 160.218 58.321 160.843 58.8153C161.468 59.304 161.99 59.9006 162.411 60.6051C162.831 61.304 163.121 62.1023 163.28 63ZM168.434 57.5455V75H166.423V57.5455H168.434ZM175.971 75.3068C175.141 75.3068 174.388 75.1506 173.712 74.8381C173.036 74.5199 172.499 74.0625 172.101 73.4659C171.703 72.8636 171.505 72.1364 171.505 71.2841C171.505 70.5341 171.652 69.9261 171.948 69.4602C172.243 68.9886 172.638 68.6193 173.132 68.3523C173.627 68.0852 174.172 67.8864 174.769 67.7557C175.371 67.6193 175.976 67.5114 176.584 67.4318C177.38 67.3295 178.025 67.2528 178.519 67.2017C179.019 67.1449 179.382 67.0511 179.61 66.9205C179.843 66.7898 179.959 66.5625 179.959 66.2386V66.1705C179.959 65.3295 179.729 64.6761 179.269 64.2102C178.814 63.7443 178.124 63.5114 177.198 63.5114C176.238 63.5114 175.485 63.7216 174.939 64.142C174.394 64.5625 174.01 65.0114 173.789 65.4886L171.88 64.8068C172.221 64.0114 172.675 63.392 173.243 62.9489C173.817 62.5 174.442 62.1875 175.118 62.0114C175.8 61.8295 176.471 61.7386 177.13 61.7386C177.55 61.7386 178.033 61.7898 178.578 61.892C179.13 61.9886 179.661 62.1903 180.172 62.4972C180.689 62.804 181.118 63.267 181.459 63.8864C181.8 64.5057 181.971 65.3352 181.971 66.375V75H179.959V73.2273H179.857C179.721 73.5114 179.493 73.8153 179.175 74.1392C178.857 74.4631 178.434 74.7386 177.905 74.9659C177.377 75.1932 176.732 75.3068 175.971 75.3068ZM176.277 73.5C177.073 73.5 177.743 73.3438 178.289 73.0312C178.84 72.7188 179.255 72.3153 179.533 71.821C179.817 71.3267 179.959 70.8068 179.959 70.2614V68.4205C179.874 68.5227 179.686 68.6165 179.397 68.7017C179.113 68.7812 178.783 68.8523 178.408 68.9148C178.039 68.9716 177.678 69.0227 177.326 69.0682C176.979 69.108 176.698 69.142 176.482 69.1705C175.959 69.2386 175.471 69.3494 175.016 69.5028C174.567 69.6506 174.203 69.875 173.925 70.1761C173.652 70.4716 173.516 70.875 173.516 71.3864C173.516 72.0852 173.775 72.6136 174.292 72.9716C174.814 73.3239 175.476 73.5 176.277 73.5ZM194.914 64.8409L193.108 65.3523C192.994 65.0511 192.826 64.7585 192.605 64.4744C192.389 64.1847 192.093 63.946 191.718 63.7585C191.343 63.571 190.863 63.4773 190.278 63.4773C189.477 63.4773 188.809 63.6619 188.275 64.0312C187.747 64.3949 187.483 64.858 187.483 65.4205C187.483 65.9205 187.664 66.3153 188.028 66.6051C188.392 66.8949 188.96 67.1364 189.733 67.3295L191.676 67.8068C192.846 68.0909 193.718 68.5256 194.292 69.1108C194.866 69.6903 195.153 70.4375 195.153 71.3523C195.153 72.1023 194.937 72.7727 194.505 73.3636C194.079 73.9545 193.483 74.4205 192.716 74.7614C191.949 75.1023 191.056 75.2727 190.039 75.2727C188.704 75.2727 187.599 74.983 186.724 74.4034C185.849 73.8239 185.295 72.9773 185.062 71.8636L186.971 71.3864C187.153 72.0909 187.497 72.6193 188.002 72.9716C188.514 73.3239 189.181 73.5 190.005 73.5C190.943 73.5 191.687 73.3011 192.238 72.9034C192.795 72.5 193.074 72.017 193.074 71.4545C193.074 71 192.914 70.6193 192.596 70.3125C192.278 70 191.789 69.767 191.13 69.6136L188.949 69.1023C187.75 68.8182 186.869 68.3778 186.306 67.7812C185.75 67.179 185.471 66.4261 185.471 65.5227C185.471 64.7841 185.679 64.1307 186.093 63.5625C186.514 62.9943 187.085 62.5483 187.806 62.2244C188.534 61.9006 189.358 61.7386 190.278 61.7386C191.574 61.7386 192.591 62.0227 193.329 62.5909C194.074 63.1591 194.602 63.9091 194.914 64.8409ZM207.453 64.8409L205.647 65.3523C205.533 65.0511 205.365 64.7585 205.144 64.4744C204.928 64.1847 204.632 63.946 204.257 63.7585C203.882 63.571 203.402 63.4773 202.817 63.4773C202.016 63.4773 201.348 63.6619 200.814 64.0312C200.286 64.3949 200.022 64.858 200.022 65.4205C200.022 65.9205 200.203 66.3153 200.567 66.6051C200.931 66.8949 201.499 67.1364 202.272 67.3295L204.215 67.8068C205.385 68.0909 206.257 68.5256 206.831 69.1108C207.405 69.6903 207.692 70.4375 207.692 71.3523C207.692 72.1023 207.476 72.7727 207.044 73.3636C206.618 73.9545 206.022 74.4205 205.255 74.7614C204.488 75.1023 203.596 75.2727 202.578 75.2727C201.243 75.2727 200.138 74.983 199.263 74.4034C198.388 73.8239 197.834 72.9773 197.601 71.8636L199.51 71.3864C199.692 72.0909 200.036 72.6193 200.542 72.9716C201.053 73.3239 201.721 73.5 202.544 73.5C203.482 73.5 204.226 73.3011 204.777 72.9034C205.334 72.5 205.613 72.017 205.613 71.4545C205.613 71 205.453 70.6193 205.135 70.3125C204.817 70 204.328 69.767 203.669 69.6136L201.488 69.1023C200.289 68.8182 199.408 68.3778 198.846 67.7812C198.289 67.179 198.01 66.4261 198.01 65.5227C198.01 64.7841 198.218 64.1307 198.632 63.5625C199.053 62.9943 199.624 62.5483 200.346 62.2244C201.073 61.9006 201.897 61.7386 202.817 61.7386C204.113 61.7386 205.13 62.0227 205.868 62.5909C206.613 63.1591 207.141 63.9091 207.453 64.8409Z" stroke="#546dfe" fill="#546dfe"/>
</svg>
